# xmcd
#
# Track frame offsets:
#	150
#	14382
#	26600
#	38345
#	50040
#	64847
#	73645
#	86100
#	97187
#	112675
#	127505
#	140335
#	153150
#	165120
#	180767
#	196112
#	209217
#	220580
#	234032
#	243722
#
# Disc length: 3402 seconds
#
# Revision: 0
# Processed by: cddbd v1.5PL3 Copyright (c) Steve Scherf et al.
# Submitted via: dBpowerAMP V4.0
#
DISCID=fa0d4814
DTITLE=Sonny Boy Williamson - Gitane Blues
DYEAR=1900
DGENRE=Blues
TTITLE0=Help Me
TTITLE1=Trust My Baby
TTITLE2=Bring It Home
TTITLE3=Don't Start Me To Talkin'
TTITLE4=The Key
TTITLE5=Checkin' Upon My Baby
TTITLE6=The Goat
TTITLE7=I Don't Know
TTITLE8=Decoration Day
TTITLE9=I Can't Be Alone
TTITLE10=All My Love In Vain
TTITLE11=Like Wolf
TTITLE12=99
TTITLE13=Nine Below Zero
TTITLE14=Cross My Heart
TTITLE15=Too Young To Die
TTITLE16=Your Funeral And My Trial
TTITLE17=Sad To Be Alone
TTITLE18=Trying To Get Back On My Feet
TTITLE19=Down Child
EXTD=Gitanes Blues
EXTT0=
EXTT1=
EXTT2=
EXTT3=
EXTT4=
EXTT5=
EXTT6=
EXTT7=
EXTT8=
EXTT9=
EXTT10=
EXTT11=
EXTT12=
EXTT13=
EXTT14=
EXTT15=
EXTT16=
EXTT17=
EXTT18=
EXTT19=
PLAYORDER=
